inDegrees=yes
name=ik_Xsens
DataType=double
version=3
OpenSimVersion=4.4-2022-07-23-0e9fedc
endheader
time	pelvis_tilt	pelvis_list	pelvis_rotation	pelvis_tx	pelvis_ty	pelvis_tz	hip_flexion_r	hip_adduction_r	hip_rotation_r	knee_angle_r	knee_angle_r_beta	ankle_angle_r	subtalar_angle_r	mtp_angle_r	hip_flexion_l	hip_adduction_l	hip_rotation_l	knee_angle_l	knee_angle_l_beta	ankle_angle_l	subtalar_angle_l	mtp_angle_l	lumbar_extension	lumbar_bending	lumbar_rotation	arm_flex_r	arm_add_r	arm_rot_r	elbow_flex_r	pro_sup_r	wrist_flex_r	wrist_dev_r	arm_flex_l	arm_add_l	arm_rot_l	elbow_flex_l	pro_sup_l	wrist_flex_l	wrist_dev_l
25.71666666666667	1.09864836586557e-24	1.602561870103828e-25	-5.33875577580975e-24	-8.780550464638692e-26	0.93	-6.811012002688018e-26	1.466028312967612e-15	5.904361698120682e-15	-3.6627727532553e-15	0	-1.39672563452922e-16	-7.017133707507654e-18	-2.523547196062864e-16	-1.150066438462474e-17	2.502439743138336e-15	-9.131443043189264e-15	1.272082207848965e-15	0	-2.061876075899005e-16	-1.007139718559482e-18	1.876559906769961e-17	2.999335379189106e-18	-3.728011225512104e-14	3.335988550622539e-14	-1.994752848531936e-14	11.89008541787133	-27.07735624098544	-22.9352115080198	-384.956143671437	-399.9303093574734	-8.655977967966671e-20	-1.214570658688799e-19	-27.46791560469366	-64.90530877483671	-106.4785044008821	-426.4347218113059	-270.3070804922958	2.651829291450695e-19	2.653129879691582e-17
25.73333333333333	0	0	0	0	0.93	0	0	0	0	1.117531326345478e-39	1.558461902396496e-41	0	0	0	0	0	0	0	-1.612292817195105e-40	0	0	0	0	0	0	10.86670509608348	-22.90957043878807	-21.20037379246916	-385.073028372747	-404.9270606161971	0	0	-30.17363106496792	-63.38703717907027	-109.558344613298	-425.9240584626577	-266.9813891658405	0	0
25.75	0	0	0	0	0.93	0	0	0	0	0	-1.836709923159824e-40	0	0	0	0	0	0	3.994181176959917e-39	1.836709923159824e-40	0	0	0	0	0	0	9.187717724995304	-18.82847562557781	-17.1703752664664	-384.3011393660813	-411.426056031274	0	0	-32.2944238226548	-61.86029890122989	-111.7881437997204	-424.9437653921777	-265.4056079724511	0	0
25.76666666666667	3.649299171859607e-26	3.520955398329419e-26	-6.605903746261427e-27	1.266333628622225e-19	0.93	-1.135130981881718e-27	-3.062429988773742e-17	-1.915184490407943e-18	-3.023962059652323e-16	0	-1.650115010369227e-15	-6.246628767910084e-20	2.82214520838056e-22	3.441665490697983e-20	9.795831278819072e-16	2.860460887743333e-15	-1.306380036944748e-15	5.187811118450624e-15	9.730299046334446e-17	-2.126213370924964e-21	2.034123736512331e-22	-4.958141640655111e-20	-4.197957556023015e-16	6.330345961608451e-16	7.768002885787388e-17	7.499548720004273	-14.581053491165	-12.89024171616507	-383.4371299658423	-418.0316486682891	-5.370671919853841e-20	1.637530676837298e-22	-33.64740809303996	-60.38699673784821	-113.02202188333	-423.8272948964595	-264.1214262980104	-3.308051652537105e-20	1.588230567405238e-21
25.78333333333333	0	0	0	0	0.93	0	0	0	0	2.091724308507572e-38	-4.90512599422554e-42	0	0	0	0	0	0	3.206369315414494e-38	5.468053624884072e-40	0	0	0	0	0	0	5.450540900940741	-9.983776027307908	-10.18348387748651	-381.418427186445	-422.5614139446345	0	0	-34.62341545039797	-59.01733012708527	-113.8597200792641	-422.7531484090617	-262.6595328809589	0	0
25.8	0	0	0	0	0.93	0	0	0	0	0	0	0	0	0	0	0	0	0	0	0	0	0	0	0	0	3.781959347581965	-6.323651230758709	-10.38886161703985	-378.0575070398506	-421.0887164263083	0	0	-34.97520160276777	-57.67695029127243	-114.0268745727154	-421.5631165516177	-261.8803420430833	0	0
25.81666666666667	5.242560307498202e-28	1.549909433920126e-20	-9.560153790779188e-28	-1.803326168573918e-26	0.93	-6.569387099647705e-26	2.008348917889668e-31	1.040071693322309e-23	0	0	-7.510793794022261e-16	-1.570644417098169e-25	-8.843462542270684e-25	-3.60862698887486e-19	-8.629773996408452e-22	1.144733936329976e-29	-4.942408935083483e-23	0	-7.5078420157984e-16	1.285476408793805e-24	1.649089522917556e-18	-7.887409866353253e-20	1.617571568820569e-27	-2.523900242648732e-27	1.085134655427233e-24	1.897018437919825	-3.502570871344849	-9.087729191581571	-375.8909866248163	-422.178451892252	-1.931890712098726e-22	-3.066401638349109e-21	-35.20838899383617	-56.49204520335964	-114.1602033595524	-420.5435665999206	-261.3875631070343	-2.124364416924411e-21	5.217957141819124e-22
25.83333333333333	0	0	0	0	0.93	0	0	0	0	2.050529340700361e-38	2.675874552656793e-40	0	0	0	0	0	0	2.605968173148659e-38	3.110350261599314e-41	0	0	0	0	0	0	0.7865950211740232	-1.358890844660372	-7.083195418747623	-374.4703090640467	-423.4329453331938	0	0	-35.50113297951258	-55.40825867619295	-114.3707355831043	-419.552590676256	-261.1584759612056	0	0
25.85	-4.059472398249988e-26	1.906917112140567e-15	-1.151693564157654e-23	-5.807536234408416e-21	0.93	1.682989185772714e-18	-9.518698402562896e-35	-2.256951976389702e-16	0	6.326785726243513e-15	1.104232394080922e-16	1.351150340198533e-19	-2.022047689656778e-17	-5.57247548978403e-16	-2.44975937451697e-15	5.024224649014242e-27	-3.741486180980639e-15	6.338302008072152e-15	1.106888403780569e-16	7.953872337916795e-18	-2.119163320276111e-23	-3.311950570403638e-15	-1.139758053226717e-25	6.782529057264111e-17	-1.043319748135897e-23	0.3331580121453296	0.4593752090774758	-6.435196144576845	-372.4391682080364	-421.5811613430934	6.661632707568367e-18	4.841131281811206e-16	-35.80311309784194	-54.46432175811362	-114.586981423846	-418.6880800716955	-261.0031902181525	-6.175113447420649e-19	-4.252683395047283e-16
